<svg xmlns="http://www.w3.org/2000/svg" viewBox="0 0 41.96 47.65" id="roles-permission"><path fill="#231f20" d="M39.65 17.17a5.21 5.21 0 0 1-2.46-2.65c-.05-.13-.1-.26-.16-.39a5.38 5.38 0 0 1-.15-3.69 4.3 4.3 0 0 0-5.36-5.36 5.27 5.27 0 0 1-3.67-.15l-.4-.16a5.23 5.23 0 0 1-2.65-2.45 4.29 4.29 0 0 0-7.62 0 5.15 5.15 0 0 1-2.66 2.45l-.39.16a5.27 5.27 0 0 1-3.67.15 4.3 4.3 0 0 0-5.38 5.36 5.27 5.27 0 0 1-.15 3.67l-.16.39a5.13 5.13 0 0 1-2.46 2.65 4.31 4.31 0 0 0 0 7.63 5.13 5.13 0 0 1 2.46 2.66l.16.39a5.27 5.27 0 0 1 .15 3.67 4.3 4.3 0 0 0 5.38 5.38 5.27 5.27 0 0 1 3.67.15l.39.16a5.15 5.15 0 0 1 2.65 2.45 4.29 4.29 0 0 0 7.62 0 5.23 5.23 0 0 1 2.65-2.45l.4-.16a5.27 5.27 0 0 1 3.67-.15 4.3 4.3 0 0 0 5.37-5.38 5.38 5.38 0 0 1 .15-3.67c.06-.13.11-.26.16-.39a5.21 5.21 0 0 1 2.46-2.65 4.31 4.31 0 0 0 0-7.63Zm-10.08-.16L19.52 27.08a1.5 1.5 0 0 1-2.12 0l-5-5a1.5 1.5 0 1 1 2.12-2.09l3.91 3.91 9-9a1.49 1.49 0 0 1 2.12 0 1.51 1.51 0 0 1 .02 2.11Z"></path><path fill="#231f20" d="M8.74 33.78 3.15 44.34a.62.62 0 0 0 .67.89l5.82-1.2a.63.63 0 0 1 .65.28l1.83 3a.62.62 0 0 0 1.08 0l5.67-10.68m13.76-2.85 5.56 10.56a.61.61 0 0 1-.66.89l-5.82-1.2a.62.62 0 0 0-.65.28l-1.83 3a.62.62 0 0 1-1.08 0l-5.23-10.68"></path></svg>